<svg id="SvgjsSvg1012" width="288" height="288" xmlns="http://www.w3.org/2000/svg" version="1.1" xmlns:xlink="http://www.w3.org/1999/xlink" xmlns:svgjs="http://svgjs.com/svgjs"><defs id="SvgjsDefs1013"></defs><g id="SvgjsG1014"><svg xmlns="http://www.w3.org/2000/svg" xmlns:svgjs="http://svgjs.com/svgjs" xmlns:xlink="http://www.w3.org/1999/xlink" width="288" height="288"><svg xmlns="http://www.w3.org/2000/svg" width="288" height="288" transform="translate(11.995 11.995) scale(.9167)" viewBox="0 0 512 512"><path fill="#f4b130" d="m512 256c0-141.488281-114.496094-256-256-256-141.488281 0-256 114.496094-256 256 0 140.234375 113.539062 256 256 256 141.875 0 256-115.121094 256-256zm-256-226c124.617188 0 226 101.382812 226 226 0 45.585938-13.558594 89.402344-38.703125 126.515625-100.96875-108.609375-273.441406-108.804687-374.59375 0-25.144531-37.113281-38.703125-80.929687-38.703125-126.515625 0-124.617188 101.382812-226 226-226zm-168.585938 376.5c89.773438-100.695312 247.421876-100.671875 337.167969 0-90.074219 100.773438-247.054687 100.804688-337.167969 0zm0 0" class="color000 svgShape colorfff"></path><path fill="#f4b130" d="m256 271c49.625 0 90-40.375 90-90v-30c0-49.625-40.375-90-90-90s-90 40.375-90 90v30c0 49.625 40.375 90 90 90zm-60-120c0-33.085938 26.914062-60 60-60s60 26.914062 60 60v30c0 33.085938-26.914062 60-60 60s-60-26.914062-60-60zm0 0" class="color000 svgShape colorfff"></path></svg></svg></g></svg>