<svg id="SvgjsSvg1019" width="288" height="288" xmlns="http://www.w3.org/2000/svg" version="1.1" xmlns:xlink="http://www.w3.org/1999/xlink" xmlns:svgjs="http://svgjs.com/svgjs"><defs id="SvgjsDefs1020"></defs><g id="SvgjsG1021"><svg xmlns="http://www.w3.org/2000/svg" width="288" height="288" enable-background="new 0 0 64 64" viewBox="0 0 64 64"><path d="m29.515 44h16.971v2h-16.971z" transform="rotate(-45 37.994 45.01)" fill="#0049ac" class="color000 svgShape"></path><path d="M34 44c1.654 0 3-1.346 3-3s-1.346-3-3-3-3 1.346-3 3 1.346 3 3 3zm0-4c.552 0 1 .448 1 1s-.448 1-1 1-1-.448-1-1 .448-1 1-1zM42 46c-1.654 0-3 1.346-3 3s1.346 3 3 3 3-1.346 3-3-1.346-3-3-3zm0 4c-.552 0-1-.448-1-1s.448-1 1-1 1 .448 1 1-.448 1-1 1zM11 21h36v2h-36zM11 25h13v2h-13zM26 25h2v2h-2zM11 29h17v2h-17zM11 33h2v2h-2zM15 33h13v2h-13zM11 37h10v2h-10z" fill="#0049ac" class="color000 svgShape"></path><path d="m51 8v-7h-44v43.758c0 1.053.427 2.084 1.172 2.828l5.828 5.828v9.586h43v-55zm-42-5h40v52h-29v-10h-10.976c-.01-.081-.024-.161-.024-.242zm9 51.555c-.058-.046-.119-.088-.172-.141l-7.414-7.414h7.586zm37 6.445h-39v-5.586l.414.414c.744.745 1.775 1.172 2.828 1.172h31.758v-47h4z" fill="#0049ac" class="color000 svgShape"></path><path d="M39 17.333l2-2.667 2 2.667v1.667h2v-2.333l-2.75-3.667 2.75-3.667v-2.333h-2v1.667l-2 2.667-2-2.667v-1.667h-2v2.333l2.75 3.667-2.75 3.667v2.333h2zM27 17h4v2h2v-3l-2.219-9h-3.562l-2.188 8.758-.031 3.242h2zm2.219-8l1.5 6h-3.438l1.5-6zM17 19h2v-10h4v-2h-10v2h4z" fill="#0049ac" class="color000 svgShape"></path></svg></g></svg>